<svg width="139" height="138" viewBox="0 0 139 138" fill="none" xmlns="http://www.w3.org/2000/svg">
<path d="M10.5936 61.8774V47.4322H29.6534C30.2664 47.4322 30.846 47.5492 31.3922 47.7833C31.9383 48.0173 32.412 48.3406 32.8133 48.753C33.2257 49.1542 33.5489 49.6279 33.783 50.1741C34.0171 50.7091 34.1341 51.2831 34.1341 51.8962V51.9965C34.1341 52.5203 34.0449 53.0108 33.8666 53.4677C34.2233 53.6461 34.5465 53.869 34.8363 54.1365C35.1372 54.404 35.388 54.705 35.5886 55.0393C35.8004 55.3737 35.962 55.7415 36.0735 56.1428C36.1961 56.5329 36.2574 56.9397 36.2574 57.3633V57.4636C36.2574 58.0766 36.1404 58.6507 35.9063 59.1857C35.6834 59.7207 35.3713 60.1888 34.97 60.5901C34.5688 60.9913 34.1006 61.309 33.5656 61.5431C33.0306 61.766 32.4566 61.8774 31.8436 61.8774H16.0942V58.3664H31.7934C32.0609 58.3664 32.2838 58.2773 32.4622 58.0989C32.6517 57.9094 32.7464 57.6865 32.7464 57.4302C32.7464 57.1627 32.6517 56.9342 32.4622 56.7447C32.2838 56.5552 32.0609 56.4605 31.7934 56.4605H16.0942V52.9662H29.6032C29.893 52.9662 30.1327 52.8714 30.3221 52.682C30.5228 52.4813 30.6231 52.2361 30.6231 51.9463C30.6231 51.6677 30.5228 51.428 30.3221 51.2274C30.1327 51.0268 29.893 50.9264 29.6032 50.9264H14.1046V64.82L10.5936 61.8774ZM42.4009 47.4322V58.3664H69.4858V54.6046C69.4858 54.1031 69.391 53.6294 69.2016 53.1835C69.0121 52.7377 68.7501 52.3476 68.4158 52.0132C68.0814 51.6788 67.6913 51.4169 67.2454 51.2274C66.7996 51.0268 66.3259 50.9264 65.8243 50.9264H50.8607V52.9662H65.2391C65.4843 52.9662 65.7184 53.0163 65.9413 53.1166C66.1643 53.217 66.3593 53.3507 66.5265 53.5179C66.6937 53.6851 66.8219 53.8802 66.911 54.1031C67.0114 54.326 67.0615 54.5601 67.0615 54.8053V56.4605H47.3497V47.4322H66.1754C67.1228 47.4322 68.0089 47.6105 68.8337 47.9672C69.6585 48.3238 70.3775 48.8143 70.9905 49.4385C71.6147 50.0515 72.1051 50.7704 72.4618 51.5952C72.8184 52.42 72.9968 53.3006 72.9968 54.2368V61.8774H38.9066V47.4322H42.4009ZM75.7392 61.8774V47.4322H94.1804C95.1724 47.4322 96.1086 47.6216 96.9892 48.0006C97.8697 48.3796 98.6332 48.8979 99.2797 49.5555C99.9373 50.202 100.456 50.9655 100.835 51.846C101.214 52.7265 101.403 53.6628 101.403 54.6548C101.403 55.6579 101.214 56.5998 100.835 57.4803C100.456 58.3497 99.9373 59.1132 99.2797 59.7708C98.6332 60.4173 97.8697 60.93 96.9892 61.309C96.1086 61.688 95.1724 61.8774 94.1804 61.8774H81.4404V58.3664H94.1804C94.6931 58.3664 95.1724 58.2717 95.6182 58.0822C96.0752 57.8816 96.4709 57.6141 96.8053 57.2797C97.1508 56.9453 97.4183 56.5552 97.6078 56.1094C97.8084 55.6524 97.9087 55.1675 97.9087 54.6548C97.9087 54.1421 97.8084 53.6628 97.6078 53.217C97.4183 52.76 97.1508 52.3643 96.8053 52.0299C96.4709 51.6844 96.0752 51.4169 95.6182 51.2274C95.1724 51.0268 94.6931 50.9264 94.1804 50.9264H79.2502V64.82L75.7392 61.8774ZM129.548 47.4322C129.504 47.4656 129.398 47.5492 129.231 47.6829C129.075 47.8167 128.79 48.0563 128.378 48.4019C127.977 48.7362 127.419 49.1988 126.706 49.7896C126.004 50.3803 125.084 51.1494 123.948 52.0968V50.9264H107.396V54.6548C107.396 55.1675 107.49 55.6524 107.68 56.1094C107.88 56.5552 108.148 56.9453 108.482 57.2797C108.817 57.6141 109.207 57.8816 109.653 58.0822C110.11 58.2717 110.595 58.3664 111.107 58.3664H129.548V61.8774H111.107C110.104 61.8774 109.162 61.688 108.282 61.309C107.412 60.93 106.649 60.4173 105.991 59.7708C105.345 59.1132 104.832 58.3497 104.453 57.4803C104.074 56.5998 103.885 55.6579 103.885 54.6548V47.4322H129.548ZM127.642 52.9662C127.609 52.9996 127.509 53.0832 127.341 53.217C127.185 53.3507 126.901 53.5904 126.489 53.9359C126.088 54.2703 125.53 54.7328 124.817 55.3236C124.104 55.9143 123.178 56.6834 122.042 57.6308V56.4605H111.375C111.13 56.4605 110.901 56.4159 110.689 56.3267C110.489 56.2375 110.31 56.1149 110.154 55.9589C109.998 55.8028 109.876 55.6189 109.786 55.4072C109.697 55.1954 109.653 54.9725 109.653 54.7384V52.9662H127.642Z" fill="#1E93FF"/>
<path d="M37.8863 79.6478H32.1268L37.8863 83.7387V88.619C37.8145 88.5712 37.5753 88.4037 37.1686 88.1167C36.7619 87.8296 36.2535 87.4707 35.6435 87.0401C35.0334 86.6095 34.3516 86.1251 33.598 85.5868C32.8445 85.0605 32.0789 84.5222 31.3014 83.972C30.3923 83.326 29.4294 82.6442 28.4127 81.9265C27.3959 81.2088 26.3134 80.4493 25.1651 79.6478H14.1305V88.619L10.3626 85.4612V75.8979H34.1363V74.7316C34.1124 74.4326 33.9868 74.1874 33.7595 73.996C33.5442 73.8046 33.293 73.7089 33.0059 73.7089H16.3733V74.9649L10.3626 69.9589H33.0956C33.7535 69.9589 34.3755 70.0845 34.9617 70.3357C35.5478 70.5869 36.0561 70.9278 36.4868 71.3584C36.9174 71.7891 37.2583 72.2974 37.5095 72.8835C37.7607 73.4577 37.8863 74.0737 37.8863 74.7316V79.6478ZM44.5646 69.941V77.7101C44.5646 78.2603 44.6663 78.7806 44.8697 79.271C45.085 79.7495 45.372 80.1682 45.7309 80.527C46.0897 80.8859 46.5084 81.1729 46.9869 81.3883C47.4773 81.5916 47.9976 81.6933 48.5479 81.6933H60.9102C61.4604 81.6933 61.9807 81.5916 62.4712 81.3883C62.9616 81.1729 63.3862 80.8859 63.7451 80.527C64.1039 80.1682 64.385 79.7495 64.5884 79.271C64.8037 78.7806 64.9113 78.2603 64.9113 77.7101V69.9589L68.6972 66.7831V77.7101C68.6972 78.7866 68.4938 79.7974 68.0872 80.7423C67.6805 81.6753 67.1242 82.4947 66.4185 83.2004C65.7247 83.8942 64.9054 84.4444 63.9604 84.8511C63.0274 85.2578 62.0286 85.4612 60.964 85.4612H48.5299C47.4534 85.4612 46.4426 85.2578 45.4976 84.8511C44.5646 84.4444 43.7453 83.8942 43.0395 83.2004C42.3458 82.4947 41.7955 81.6753 41.3888 80.7423C40.9821 79.7974 40.7788 78.7866 40.7788 77.7101V69.9589L44.5646 69.941ZM77.4511 71.8608V69.9589H102.84C102.852 69.9709 102.929 70.0666 103.073 70.246C103.228 70.4254 103.432 70.6527 103.683 70.9278C103.934 71.2029 104.215 71.5199 104.526 71.8788C104.849 72.2257 105.172 72.5845 105.495 72.9553C105.83 73.3142 106.153 73.673 106.464 74.0319C106.787 74.3787 107.074 74.6897 107.325 74.9649C107.576 75.24 107.78 75.4613 107.935 75.6287C108.091 75.7962 108.175 75.8859 108.186 75.8979H125.698V69.9589H129.466V88.619L125.698 85.4612V79.6658H106.518C106.207 79.3309 105.896 78.9959 105.585 78.661C105.286 78.3141 104.981 77.9672 104.67 77.6203C104.132 77.0103 103.551 76.3644 102.929 75.6826C102.319 74.9888 101.727 74.3309 101.153 73.7089H79.1736L77.4511 71.8608ZM76.3566 80.545V81.6933H94.8732C95.1603 81.6933 95.4055 81.5976 95.6089 81.4062C95.8122 81.2028 95.9139 80.9636 95.9139 80.6885C95.9139 80.4014 95.8122 80.1562 95.6089 79.9529C95.4055 79.7495 95.1603 79.6478 94.8732 79.6478H76.7155L71.7454 74.5701V69.9589H75.4954V72.9912L78.1868 75.8979H94.8732C95.5311 75.8979 96.1531 76.0235 96.7392 76.2747C97.3253 76.5259 97.8337 76.8668 98.2643 77.2974C98.695 77.728 99.0359 78.2364 99.2871 78.8225C99.5382 79.4086 99.6638 80.0306 99.6638 80.6885C99.6638 81.3464 99.5382 81.9684 99.2871 82.5545C99.0359 83.1287 98.695 83.6311 98.2643 84.0617C97.8337 84.4923 97.3253 84.8332 96.7392 85.0844C96.1531 85.3356 95.5311 85.4612 94.8732 85.4612H71.7454L76.3566 80.545ZM101.943 77.5306C102.002 77.6024 102.17 77.7938 102.445 78.1048C102.732 78.4158 103.061 78.7866 103.432 79.2172C103.815 79.6359 104.209 80.0725 104.616 80.527C105.023 80.9696 105.381 81.3583 105.692 81.6933V88.619L101.943 85.4612V77.5306Z" fill="#1E93FF"/>
<path opacity="0.8" d="M10.3202 92.8814H11.6143C11.8481 92.8814 12.0208 92.9348 12.1323 93.0416C12.2439 93.1484 12.2997 93.3139 12.2997 93.5382V93.8373C12.2997 94.0616 12.2439 94.2271 12.1323 94.3339C12.0208 94.4396 11.8481 94.4924 11.6143 94.4924H10.7759V95.4661H10.3202V92.8814ZM11.844 93.7679V93.6077C11.844 93.4854 11.8167 93.3994 11.7621 93.3495C11.7087 93.2997 11.6167 93.2748 11.4862 93.2748H10.7759V94.099H11.4862C11.6167 94.099 11.7087 94.0746 11.7621 94.026C11.8167 93.9761 11.844 93.8901 11.844 93.7679ZM15.0926 95.4661H14.5568L13.7807 94.471H13.3392V95.4661H12.8835V92.8814H14.1848C14.4186 92.8814 14.5912 92.9348 14.7028 93.0416C14.8143 93.1484 14.8701 93.3139 14.8701 93.5382V93.8177C14.8701 94.0147 14.8256 94.1666 14.7366 94.2734C14.6476 94.3802 14.5123 94.4437 14.3307 94.4639L15.0926 95.4661ZM14.0531 93.2748H13.3392V94.0776H14.0531C14.1871 94.0776 14.2809 94.0533 14.3343 94.0046C14.3877 93.956 14.4144 93.8705 14.4144 93.7483V93.6077C14.4144 93.4854 14.3871 93.3994 14.3325 93.3495C14.2791 93.2997 14.186 93.2748 14.0531 93.2748ZM16.2105 92.844H16.903C17.1367 92.844 17.3094 92.8974 17.421 93.0042C17.5325 93.111 17.5883 93.2766 17.5883 93.5009V94.8502C17.5883 95.0709 17.5319 95.2347 17.4192 95.3415C17.3076 95.4483 17.1356 95.5017 16.903 95.5017H16.2105C15.9767 95.5017 15.8035 95.4483 15.6907 95.3415C15.578 95.2347 15.5216 95.0709 15.5216 94.8502V93.5009C15.5216 93.2766 15.578 93.111 15.6907 93.0042C15.8035 92.8974 15.9767 92.844 16.2105 92.844ZM17.1326 94.7807V93.5703C17.1326 93.448 17.1053 93.3626 17.0507 93.3139C16.9973 93.2641 16.9053 93.2392 16.7748 93.2392H16.3369C16.204 93.2392 16.1108 93.2641 16.0574 93.3139C16.004 93.3626 15.9773 93.448 15.9773 93.5703V94.7807C15.9773 94.903 16.004 94.989 16.0574 95.0388C16.1108 95.0875 16.204 95.1118 16.3369 95.1118H16.7748C16.9053 95.1118 16.9973 95.0875 17.0507 95.0388C17.1053 94.989 17.1326 94.903 17.1326 94.7807ZM18.0974 92.8814H20.1908V93.2748H19.3702V95.4661H18.9145V93.2748H18.0974V92.8814ZM21.3656 92.844H22.0581C22.2919 92.844 22.4645 92.8974 22.5761 93.0042C22.6876 93.111 22.7434 93.2766 22.7434 93.5009V94.8502C22.7434 95.0709 22.687 95.2347 22.5743 95.3415C22.4628 95.4483 22.2907 95.5017 22.0581 95.5017H21.3656C21.1318 95.5017 20.9586 95.4483 20.8458 95.3415C20.7331 95.2347 20.6767 95.0709 20.6767 94.8502V93.5009C20.6767 93.2766 20.7331 93.111 20.8458 93.0042C20.9586 92.8974 21.1318 92.844 21.3656 92.844ZM22.2877 94.7807V93.5703C22.2877 93.448 22.2604 93.3626 22.2058 93.3139C22.1524 93.2641 22.0605 93.2392 21.9299 93.2392H21.492C21.3591 93.2392 21.2659 93.2641 21.2125 93.3139C21.1591 93.3626 21.1324 93.448 21.1324 93.5703V94.7807C21.1324 94.903 21.1591 94.989 21.2125 95.0388C21.2659 95.0875 21.3591 95.1118 21.492 95.1118H21.9299C22.0605 95.1118 22.1524 95.0875 22.2058 95.0388C22.2604 94.989 22.2877 94.903 22.2877 94.7807ZM23.2525 92.8814H25.3459V93.2748H24.5253V95.4661H24.0696V93.2748H23.2525V92.8814ZM27.5692 92.8814H28.0801L27.1064 94.5689V95.4661H26.6507V94.5689L25.6805 92.8814H26.1879L26.8839 94.0776L27.5692 92.8814ZM28.6266 92.8814H29.9207C30.1545 92.8814 30.3272 92.9348 30.4387 93.0416C30.5503 93.1484 30.606 93.3139 30.606 93.5382V93.8373C30.606 94.0616 30.5503 94.2271 30.4387 94.3339C30.3272 94.4396 30.1545 94.4924 29.9207 94.4924H29.0823V95.4661H28.6266V92.8814ZM30.1503 93.7679V93.6077C30.1503 93.4854 30.123 93.3994 30.0685 93.3495C30.015 93.2997 29.9231 93.2748 29.7925 93.2748H29.0823V94.099H29.7925C29.9231 94.099 30.015 94.0746 30.0685 94.026C30.123 93.9761 30.1503 93.8901 30.1503 93.7679ZM33.0056 92.8814V93.2748H31.6456V93.9423H32.8525V94.3322H31.6456V95.0762H33.0056V95.4661H31.1899V92.8814H33.0056Z" fill="#1E93FF"/>
</svg>
