<svg width="138" height="138" viewBox="0 0 138 138" fill="none" xmlns="http://www.w3.org/2000/svg">
<path d="M46.0859 75.4615V59.0727L55.0998 53.8829L63.5673 51.6978H75.3126L81.8682 52.7903L88.97 56.0681V74.6421C88.97 75.2976 88.6058 76.1899 88.4237 76.5541L78.0441 79.8319H57.5581L46.9054 76.5541L46.0859 75.4615Z" fill="white"/>
<path d="M33.7904 63.7162L45.2626 74.642L89.5124 73.2763L102.35 64.8087L104.535 53.8829L102.35 50.6051L90.6049 45.6885C77.2208 46.599 50.3431 48.4199 49.9061 48.4199C49.4691 48.4199 44.9894 49.5125 42.8043 50.0588L33.2441 59.3458L33.7904 63.7162Z" fill="white"/>
<path d="M49.0873 38.0402L48.541 40.2254H87.601L85.4158 34.4893L72.3048 25.2023L68.2076 24.9292L63.8372 25.2023L49.0873 38.0402Z" fill="white"/>
<path d="M45.7305 59.1355L50.5775 56.1691C55.2883 53.2862 60.7039 51.7605 66.2269 51.7605H73.7001C77.8161 51.7605 81.888 52.608 85.6622 54.2503L89.4629 55.9042" stroke="black" stroke-width="1.30347"/>
<path d="M48.6562 40.3302L62.5793 33.6714C63.2816 33.3355 64.0503 33.1611 64.8289 33.1611H72.2442C73.0198 33.1611 73.7856 33.3342 74.4859 33.6676L87.1087 39.6785" stroke="black" stroke-width="1.30347" stroke-linecap="square"/>
<path d="M46.7012 48.1512L48.3089 40.1127C48.5342 38.9859 49.1254 37.9652 49.9907 37.2091L62.7609 26.0496C63.711 25.2194 64.9299 24.7618 66.1917 24.7618H70.401C71.4775 24.7618 72.5276 25.095 73.4072 25.7157L84.4479 33.5067C85.331 34.1299 85.9986 35.0122 86.3584 36.0315L89.7158 45.5442" stroke="black" stroke-width="1.30347" stroke-linecap="square"/>
<path d="M46.0485 75.5243L34.911 64.8711C32.7974 62.8493 32.763 59.4877 34.8677 57.4566C38.4578 53.9921 42.446 50.2539 42.7899 50.1066C51.6718 46.3 73.9346 47.0224 89.7394 45.6607C90.5815 45.5881 91.4271 45.7116 92.2094 46.0316L101.267 49.7372C103.627 50.7025 104.942 53.2324 104.377 55.7184L102.591 63.578C102.276 64.9643 101.409 66.1619 100.189 66.8933L89.0632 73.5691" stroke="black" stroke-width="1.30347"/>
<path d="M89.0635 55.3203V73.8882C89.0635 74.9672 88.8402 76.0344 88.4078 77.0229L81.9893 91.6936C80.7439 94.5403 77.9314 96.3797 74.8242 96.3797H59.7858C56.6031 96.3797 53.7379 94.4511 52.54 91.5025L46.6239 76.9398C46.2441 76.0049 46.0488 75.0053 46.0488 73.9962V58.579" stroke="black" stroke-width="1.30347"/>
<path d="M48.6564 40.3302L46.7012 48.1511V48.8028L89.7158 45.5441L87.1089 39.6785L72.7707 33.1611H63.6463L48.6564 40.3302Z" fill="black" stroke="black" stroke-width="1.30347"/>
<path d="M65.7031 67.1127C65.7031 71.4658 62.7624 74.9947 59.1348 74.9947C55.5072 74.9947 52.5664 71.4658 52.5664 67.1127C52.5664 62.7596 53.3177 59.2307 56.9453 59.2307C60.5729 59.2307 65.7031 62.7596 65.7031 67.1127Z" fill="black"/>
<ellipse cx="59.1344" cy="67.1126" rx="3.94101" ry="5.25467" fill="white"/>
<ellipse cx="59.134" cy="67.1127" rx="1.31367" ry="2.62734" fill="black"/>
<ellipse cx="60.7258" cy="66.4555" rx="1.31367" ry="1.31367" fill="white"/>
<path d="M83.8594 66.2604C84.0032 70.9191 81.2712 74.7837 77.7575 74.8921C74.2437 75.0006 71.2786 71.3118 71.1349 66.6531C70.9911 61.9943 73.7665 59.5356 77.2802 59.4272C80.794 59.3188 83.7157 61.6016 83.8594 66.2604Z" fill="black"/>
<ellipse cx="77.5367" cy="67.064" rx="3.91558" ry="5.22077" fill="white"/>
<ellipse cx="77.5376" cy="67.064" rx="1.30519" ry="2.61039" fill="black"/>
<ellipse cx="79.1177" cy="66.4116" rx="1.30519" ry="1.30519" fill="white"/>
<path d="M57.885 79.5698L46.4258 76.0896L53.2164 92.9815L57.885 96.1222H77.1538L81.398 92.9815L88.6981 76.0896L77.9178 79.5698H57.885Z" fill="black"/>
<path d="M51.2617 57.2759L65.5999 61.1863L65.5678 63.5681L51.2617 61.838L51.2617 57.2759Z" fill="black"/>
<path d="M85.0957 57.1057L70.7575 61.0161L70.7897 63.3979L85.0957 61.6679L85.0957 57.1057Z" fill="black"/>
<g filter="url(#filter0_d_188_567)">
<mask id="path-21-outside-1_188_567" maskUnits="userSpaceOnUse" x="5.33008" y="85.4746" width="127" height="22" fill="black">
<rect fill="white" x="5.33008" y="85.4746" width="127" height="22"/>
<path d="M15.101 87.07H19.6288V106.475H16.0853V93.0883L13.2168 100.288H12.12L9.25153 93.0883V106.475H5.87682V87.07H10.2921L12.7106 93.0883L15.101 87.07ZM29.4051 106.475L29.0114 104H25.6085L25.2429 106.475H21.7276L25.2148 87.07H29.4613L32.9766 106.475H29.4051ZM28.5333 100.738L27.324 92.9195L26.0585 100.738H28.5333ZM39.2981 86.5076C40.8354 86.5076 42.0353 86.9575 42.8978 87.8575C43.7789 88.7386 44.2195 89.9573 44.2195 91.5134V92.7227L40.7886 92.8914V91.8228C40.7886 91.1291 40.6761 90.6229 40.4511 90.3041C40.2261 89.9854 39.8699 89.826 39.3824 89.826C38.445 89.826 37.9763 90.3979 37.9763 91.5415V101.441C37.9763 102.584 38.445 103.156 39.3824 103.156C39.8699 103.156 40.2261 102.997 40.4511 102.678C40.6761 102.359 40.7886 101.853 40.7886 101.159V99.7814L44.2195 99.9502V101.469C44.2195 103.025 43.7789 104.253 42.8978 105.153C42.0353 106.034 40.8354 106.475 39.2981 106.475C37.7795 106.475 36.5889 106.034 35.7265 105.153C34.8641 104.272 34.4329 103.044 34.4329 101.469V91.5134C34.4329 89.9385 34.8641 88.7105 35.7265 87.8293C36.5889 86.9482 37.7795 86.5076 39.2981 86.5076ZM53.2119 106.475V99.7252H50.2309V106.475H46.6875V87.07H50.2309V96.3505H53.2119V87.07H56.7554V106.475H53.2119ZM59.6241 106.475V87.07H63.1675V106.475H59.6241ZM73.3578 87.07H76.7325V106.475H73.3297L69.5613 95.6755V106.475H66.1865V87.07H69.9831L73.3578 96.5473V87.07ZM83.108 90.3885V96.5192H87.467L86.9045 99.8377H83.108V103.156H88.5075V106.475H79.5645V87.07H88.5075V90.3885H83.108ZM101.037 86.6482C102.593 86.6482 103.811 87.0888 104.692 87.97C105.574 88.8511 106.014 90.0792 106.014 91.654V94.41L102.583 94.5788V91.9634C102.583 91.2697 102.461 90.7635 102.218 90.4447C101.993 90.126 101.627 89.9667 101.121 89.9667C100.146 89.9667 99.6585 90.5385 99.6585 91.6821V101.581C99.6585 102.162 99.771 102.594 99.996 102.875C100.24 103.156 100.605 103.297 101.093 103.297C101.599 103.297 101.965 103.147 102.19 102.847C102.415 102.528 102.527 102.012 102.527 101.3V99.6971H101.599L101.037 96.3786H106.014V101.609C106.014 103.184 105.574 104.412 104.692 105.293C103.811 106.175 102.593 106.615 101.037 106.615C99.4804 106.615 98.2712 106.175 97.4087 105.293C96.5463 104.412 96.1151 103.184 96.1151 101.609V91.654C96.1151 90.0792 96.5463 88.8511 97.4087 87.97C98.2712 87.0888 99.4804 86.6482 101.037 86.6482ZM118.483 101.778C118.483 103.353 118.052 104.581 117.19 105.462C116.327 106.325 115.118 106.756 113.562 106.756C112.024 106.756 110.825 106.325 109.962 105.462C109.118 104.581 108.697 103.353 108.697 101.778V87.07H112.128V101.694C112.128 102.256 112.268 102.697 112.549 103.016C112.831 103.316 113.159 103.465 113.534 103.465C113.909 103.465 114.237 103.316 114.518 103.016C114.799 102.697 114.94 102.256 114.94 101.694V87.07H118.483V101.778ZM128.202 87.07H131.577V106.475H128.174L124.406 95.6755V106.475H121.031V87.07H124.828L128.202 96.5473V87.07Z"/>
</mask>
<path d="M15.101 87.07H19.6288V106.475H16.0853V93.0883L13.2168 100.288H12.12L9.25153 93.0883V106.475H5.87682V87.07H10.2921L12.7106 93.0883L15.101 87.07ZM29.4051 106.475L29.0114 104H25.6085L25.2429 106.475H21.7276L25.2148 87.07H29.4613L32.9766 106.475H29.4051ZM28.5333 100.738L27.324 92.9195L26.0585 100.738H28.5333ZM39.2981 86.5076C40.8354 86.5076 42.0353 86.9575 42.8978 87.8575C43.7789 88.7386 44.2195 89.9573 44.2195 91.5134V92.7227L40.7886 92.8914V91.8228C40.7886 91.1291 40.6761 90.6229 40.4511 90.3041C40.2261 89.9854 39.8699 89.826 39.3824 89.826C38.445 89.826 37.9763 90.3979 37.9763 91.5415V101.441C37.9763 102.584 38.445 103.156 39.3824 103.156C39.8699 103.156 40.2261 102.997 40.4511 102.678C40.6761 102.359 40.7886 101.853 40.7886 101.159V99.7814L44.2195 99.9502V101.469C44.2195 103.025 43.7789 104.253 42.8978 105.153C42.0353 106.034 40.8354 106.475 39.2981 106.475C37.7795 106.475 36.5889 106.034 35.7265 105.153C34.8641 104.272 34.4329 103.044 34.4329 101.469V91.5134C34.4329 89.9385 34.8641 88.7105 35.7265 87.8293C36.5889 86.9482 37.7795 86.5076 39.2981 86.5076ZM53.2119 106.475V99.7252H50.2309V106.475H46.6875V87.07H50.2309V96.3505H53.2119V87.07H56.7554V106.475H53.2119ZM59.6241 106.475V87.07H63.1675V106.475H59.6241ZM73.3578 87.07H76.7325V106.475H73.3297L69.5613 95.6755V106.475H66.1865V87.07H69.9831L73.3578 96.5473V87.07ZM83.108 90.3885V96.5192H87.467L86.9045 99.8377H83.108V103.156H88.5075V106.475H79.5645V87.07H88.5075V90.3885H83.108ZM101.037 86.6482C102.593 86.6482 103.811 87.0888 104.692 87.97C105.574 88.8511 106.014 90.0792 106.014 91.654V94.41L102.583 94.5788V91.9634C102.583 91.2697 102.461 90.7635 102.218 90.4447C101.993 90.126 101.627 89.9667 101.121 89.9667C100.146 89.9667 99.6585 90.5385 99.6585 91.6821V101.581C99.6585 102.162 99.771 102.594 99.996 102.875C100.24 103.156 100.605 103.297 101.093 103.297C101.599 103.297 101.965 103.147 102.19 102.847C102.415 102.528 102.527 102.012 102.527 101.3V99.6971H101.599L101.037 96.3786H106.014V101.609C106.014 103.184 105.574 104.412 104.692 105.293C103.811 106.175 102.593 106.615 101.037 106.615C99.4804 106.615 98.2712 106.175 97.4087 105.293C96.5463 104.412 96.1151 103.184 96.1151 101.609V91.654C96.1151 90.0792 96.5463 88.8511 97.4087 87.97C98.2712 87.0888 99.4804 86.6482 101.037 86.6482ZM118.483 101.778C118.483 103.353 118.052 104.581 117.19 105.462C116.327 106.325 115.118 106.756 113.562 106.756C112.024 106.756 110.825 106.325 109.962 105.462C109.118 104.581 108.697 103.353 108.697 101.778V87.07H112.128V101.694C112.128 102.256 112.268 102.697 112.549 103.016C112.831 103.316 113.159 103.465 113.534 103.465C113.909 103.465 114.237 103.316 114.518 103.016C114.799 102.697 114.94 102.256 114.94 101.694V87.07H118.483V101.778ZM128.202 87.07H131.577V106.475H128.174L124.406 95.6755V106.475H121.031V87.07H124.828L128.202 96.5473V87.07Z" fill="white"/>
<path d="M15.101 87.07V86.5678H14.7601L14.6343 86.8847L15.101 87.07ZM19.6288 87.07H20.1309V86.5678H19.6288V87.07ZM19.6288 106.475V106.977H20.1309V106.475H19.6288ZM16.0853 106.475H15.5831V106.977H16.0853V106.475ZM16.0853 93.0883H16.5875L15.6188 92.9024L16.0853 93.0883ZM13.2168 100.288V100.79H13.5573L13.6833 100.474L13.2168 100.288ZM12.12 100.288L11.6535 100.474L11.7795 100.79H12.12V100.288ZM9.25153 93.0883L9.71805 92.9024L8.74934 93.0883H9.25153ZM9.25153 106.475V106.977H9.75372V106.475H9.25153ZM5.87682 106.475H5.37463V106.977H5.87682V106.475ZM5.87682 87.07V86.5678H5.37463V87.07H5.87682ZM10.2921 87.07L10.758 86.8828L10.6315 86.5678H10.2921V87.07ZM12.7106 93.0883L12.2446 93.2755L12.7133 94.4418L13.1773 93.2736L12.7106 93.0883ZM15.101 87.5722H19.6288V86.5678H15.101V87.5722ZM19.1266 87.07V106.475H20.1309V87.07H19.1266ZM19.6288 105.972H16.0853V106.977H19.6288V105.972ZM16.5875 106.475V93.0883H15.5831V106.475H16.5875ZM15.6188 92.9024L12.7503 100.102L13.6833 100.474L16.5518 93.2741L15.6188 92.9024ZM13.2168 99.7855H12.12V100.79H13.2168V99.7855ZM12.5866 100.102L9.71805 92.9024L8.78501 93.2741L11.6535 100.474L12.5866 100.102ZM8.74934 93.0883V106.475H9.75372V93.0883H8.74934ZM9.25153 105.972H5.87682V106.977H9.25153V105.972ZM6.37901 106.475V87.07H5.37463V106.475H6.37901ZM5.87682 87.5722H10.2921V86.5678H5.87682V87.5722ZM9.82609 87.2573L12.2446 93.2755L13.1766 92.901L10.758 86.8828L9.82609 87.2573ZM13.1773 93.2736L15.5677 87.2554L14.6343 86.8847L12.2439 92.9029L13.1773 93.2736ZM29.4051 106.475L28.9091 106.554L28.9765 106.977H29.4051V106.475ZM29.0114 104L29.5073 103.921L29.44 103.498H29.0114V104ZM25.6085 104V103.498H25.1751L25.1117 103.926L25.6085 104ZM25.2429 106.475V106.977H25.6764L25.7397 106.548L25.2429 106.475ZM21.7276 106.475L21.2333 106.386L21.1271 106.977H21.7276V106.475ZM25.2148 87.07V86.5678H24.7948L24.7205 86.9812L25.2148 87.07ZM29.4613 87.07L29.9555 86.9805L29.8807 86.5678H29.4613V87.07ZM32.9766 106.475V106.977H33.578L33.4708 106.385L32.9766 106.475ZM28.5333 100.738V101.24H29.1191L29.0296 100.661L28.5333 100.738ZM27.324 92.9195L27.8203 92.8428L26.8283 92.8393L27.324 92.9195ZM26.0585 100.738L25.5628 100.657L25.4685 101.24H26.0585V100.738ZM29.901 106.396L29.5073 103.921L28.5154 104.079L28.9091 106.554L29.901 106.396ZM29.0114 103.498H25.6085V104.502H29.0114V103.498ZM25.1117 103.926L24.7461 106.401L25.7397 106.548L26.1053 104.073L25.1117 103.926ZM25.2429 105.972H21.7276V106.977H25.2429V105.972ZM22.2219 106.563L25.7091 87.1589L24.7205 86.9812L21.2333 106.386L22.2219 106.563ZM25.2148 87.5722H29.4613V86.5678H25.2148V87.5722ZM28.9672 87.1596L32.4825 106.564L33.4708 106.385L29.9555 86.9805L28.9672 87.1596ZM32.9766 105.972H29.4051V106.977H32.9766V105.972ZM29.0296 100.661L27.8203 92.8428L26.8277 92.9963L28.037 100.814L29.0296 100.661ZM26.8283 92.8393L25.5628 100.657L26.5542 100.818L27.8197 92.9998L26.8283 92.8393ZM26.0585 101.24H28.5333V100.235H26.0585V101.24ZM42.8978 87.8575L42.5351 88.205L42.5427 88.2126L42.8978 87.8575ZM44.2195 92.7227L44.2442 93.2243L44.7217 93.2008V92.7227H44.2195ZM40.7886 92.8914H40.2864V93.4189L40.8132 93.393L40.7886 92.8914ZM40.4511 90.3041L40.8614 90.0145L40.8614 90.0145L40.4511 90.3041ZM40.4511 102.678L40.8614 102.968L40.8614 102.968L40.4511 102.678ZM40.7886 99.7814L40.8132 99.2799L40.2864 99.2539V99.7814H40.7886ZM44.2195 99.9502H44.7217V99.4721L44.2442 99.4486L44.2195 99.9502ZM42.8978 105.153L42.5389 104.802L42.5389 104.802L42.8978 105.153ZM39.2981 87.0098C40.7327 87.0098 41.7887 87.426 42.5352 88.2049L43.2603 87.51C42.2819 86.4891 40.9382 86.0054 39.2981 86.0054V87.0098ZM42.5427 88.2126C43.3075 88.9774 43.7173 90.0555 43.7173 91.5134H44.7217C44.7217 89.8591 44.2504 88.4999 43.2529 87.5024L42.5427 88.2126ZM43.7173 91.5134V92.7227H44.7217V91.5134H43.7173ZM44.1949 92.2211L40.7639 92.3898L40.8132 93.393L44.2442 93.2243L44.1949 92.2211ZM41.2908 92.8914V91.8228H40.2864V92.8914H41.2908ZM41.2908 91.8228C41.2908 91.0962 41.177 90.4617 40.8614 90.0145L40.0408 90.5937C40.1751 90.784 40.2864 91.1619 40.2864 91.8228H41.2908ZM40.8614 90.0145C40.5187 89.5291 39.9874 89.3239 39.3824 89.3239V90.3282C39.7524 90.3282 39.9335 90.4417 40.0408 90.5937L40.8614 90.0145ZM39.3824 89.3239C38.8071 89.3239 38.2939 89.5042 37.9395 89.9366C37.6007 90.3498 37.4741 90.9139 37.4741 91.5415H38.4785C38.4785 91.0255 38.5863 90.7318 38.7162 90.5733C38.8305 90.4338 39.0204 90.3282 39.3824 90.3282V89.3239ZM37.4741 91.5415V101.441H38.4785V91.5415H37.4741ZM37.4741 101.441C37.4741 102.068 37.6007 102.632 37.9395 103.046C38.2939 103.478 38.8071 103.658 39.3824 103.658V102.654C39.0204 102.654 38.8305 102.548 38.7162 102.409C38.5863 102.25 38.4785 101.957 38.4785 101.441H37.4741ZM39.3824 103.658C39.9874 103.658 40.5187 103.453 40.8614 102.968L40.0408 102.388C39.9335 102.54 39.7524 102.654 39.3824 102.654V103.658ZM40.8614 102.968C41.177 102.521 41.2908 101.886 41.2908 101.159H40.2864C40.2864 101.82 40.1751 102.198 40.0408 102.388L40.8614 102.968ZM41.2908 101.159V99.7814H40.2864V101.159H41.2908ZM40.7639 100.283L44.1949 100.452L44.2442 99.4486L40.8132 99.2799L40.7639 100.283ZM43.7173 99.9502V101.469H44.7217V99.9502H43.7173ZM43.7173 101.469C43.7173 102.926 43.3076 104.016 42.5389 104.802L43.2566 105.504C44.2502 104.489 44.7217 103.124 44.7217 101.469H43.7173ZM42.5389 104.802C41.7931 105.564 40.7357 105.972 39.2981 105.972V106.977C40.9351 106.977 42.2776 106.504 43.2567 105.504L42.5389 104.802ZM39.2981 105.972C37.8812 105.972 36.8324 105.565 36.0854 104.802L35.3676 105.504C36.3455 106.503 37.6777 106.977 39.2981 106.977V105.972ZM36.0854 104.802C35.3384 104.038 34.9351 102.95 34.9351 101.469H33.9307C33.9307 103.137 34.3898 104.505 35.3676 105.504L36.0854 104.802ZM34.9351 101.469V91.5134H33.9307V101.469H34.9351ZM34.9351 91.5134C34.9351 90.0318 35.3384 88.9439 36.0854 88.1806L35.3676 87.4781C34.3898 88.4772 33.9307 89.8453 33.9307 91.5134H34.9351ZM36.0854 88.1806C36.8324 87.4174 37.8812 87.0098 39.2981 87.0098V86.0054C37.6777 86.0054 36.3455 86.4789 35.3676 87.4781L36.0854 88.1806ZM53.2119 106.475H52.7097V106.977H53.2119V106.475ZM53.2119 99.7252H53.7141V99.223H53.2119V99.7252ZM50.2309 99.7252V99.223H49.7288V99.7252H50.2309ZM50.2309 106.475V106.977H50.7331V106.475H50.2309ZM46.6875 106.475H46.1853V106.977H46.6875V106.475ZM46.6875 87.07V86.5678H46.1853V87.07H46.6875ZM50.2309 87.07H50.7331V86.5678H50.2309V87.07ZM50.2309 96.3505H49.7288V96.8527H50.2309V96.3505ZM53.2119 96.3505V96.8527H53.7141V96.3505H53.2119ZM53.2119 87.07V86.5678H52.7097V87.07H53.2119ZM56.7554 87.07H57.2576V86.5678H56.7554V87.07ZM56.7554 106.475V106.977H57.2576V106.475H56.7554ZM53.7141 106.475V99.7252H52.7097V106.475H53.7141ZM53.2119 99.223H50.2309V100.227H53.2119V99.223ZM49.7288 99.7252V106.475H50.7331V99.7252H49.7288ZM50.2309 105.972H46.6875V106.977H50.2309V105.972ZM47.1897 106.475V87.07H46.1853V106.475H47.1897ZM46.6875 87.5722H50.2309V86.5678H46.6875V87.5722ZM49.7288 87.07V96.3505H50.7331V87.07H49.7288ZM50.2309 96.8527H53.2119V95.8483H50.2309V96.8527ZM53.7141 96.3505V87.07H52.7097V96.3505H53.7141ZM53.2119 87.5722H56.7554V86.5678H53.2119V87.5722ZM56.2532 87.07V106.475H57.2576V87.07H56.2532ZM56.7554 105.972H53.2119V106.977H56.7554V105.972ZM59.6241 106.475H59.1219V106.977H59.6241V106.475ZM59.6241 87.07V86.5678H59.1219V87.07H59.6241ZM63.1675 87.07H63.6697V86.5678H63.1675V87.07ZM63.1675 106.475V106.977H63.6697V106.475H63.1675ZM60.1263 106.475V87.07H59.1219V106.475H60.1263ZM59.6241 87.5722H63.1675V86.5678H59.6241V87.5722ZM62.6654 87.07V106.475H63.6697V87.07H62.6654ZM63.1675 105.972H59.6241V106.977H63.1675V105.972ZM73.3578 87.07V86.5678H72.8556V87.07H73.3578ZM76.7325 87.07H77.2347V86.5678H76.7325V87.07ZM76.7325 106.475V106.977H77.2347V106.475H76.7325ZM73.3297 106.475L72.8555 106.64L72.973 106.977H73.3297V106.475ZM69.5613 95.6755L70.0354 95.5101L69.0591 95.6755H69.5613ZM69.5613 106.475V106.977H70.0634V106.475H69.5613ZM66.1865 106.475H65.6844V106.977H66.1865V106.475ZM66.1865 87.07V86.5678H65.6844V87.07H66.1865ZM69.9831 87.07L70.4562 86.9016L70.3373 86.5678H69.9831V87.07ZM73.3578 96.5473L72.8847 96.7158L73.86 96.5473H73.3578ZM73.3578 87.5722H76.7325V86.5678H73.3578V87.5722ZM76.2303 87.07V106.475H77.2347V87.07H76.2303ZM76.7325 105.972H73.3297V106.977H76.7325V105.972ZM73.8038 106.309L70.0354 95.5101L69.0871 95.841L72.8555 106.64L73.8038 106.309ZM69.0591 95.6755V106.475H70.0634V95.6755H69.0591ZM69.5613 105.972H66.1865V106.977H69.5613V105.972ZM66.6887 106.475V87.07H65.6844V106.475H66.6887ZM66.1865 87.5722H69.9831V86.5678H66.1865V87.5722ZM69.51 87.2385L72.8847 96.7158L73.8309 96.3789L70.4562 86.9016L69.51 87.2385ZM73.86 96.5473V87.07H72.8556V96.5473H73.86ZM83.108 90.3885V89.8863H82.6058V90.3885H83.108ZM83.108 96.5192H82.6058V97.0214H83.108V96.5192ZM87.467 96.5192L87.9621 96.6031L88.0614 96.017H87.467V96.5192ZM86.9045 99.8377V100.34H87.3288L87.3997 99.9216L86.9045 99.8377ZM83.108 99.8377V99.3355H82.6058V99.8377H83.108ZM83.108 103.156H82.6058V103.658H83.108V103.156ZM88.5075 103.156H89.0097V102.654H88.5075V103.156ZM88.5075 106.475V106.977H89.0097V106.475H88.5075ZM79.5645 106.475H79.0623V106.977H79.5645V106.475ZM79.5645 87.07V86.5678H79.0623V87.07H79.5645ZM88.5075 87.07H89.0097V86.5678H88.5075V87.07ZM88.5075 90.3885V90.8907H89.0097V90.3885H88.5075ZM82.6058 90.3885V96.5192H83.6102V90.3885H82.6058ZM83.108 97.0214H87.467V96.017H83.108V97.0214ZM86.9719 96.4353L86.4094 99.7538L87.3997 99.9216L87.9621 96.6031L86.9719 96.4353ZM86.9045 99.3355H83.108V100.34H86.9045V99.3355ZM82.6058 99.8377V103.156H83.6102V99.8377H82.6058ZM83.108 103.658H88.5075V102.654H83.108V103.658ZM88.0053 103.156V106.475H89.0097V103.156H88.0053ZM88.5075 105.972H79.5645V106.977H88.5075V105.972ZM80.0667 106.475V87.07H79.0623V106.475H80.0667ZM79.5645 87.5722H88.5075V86.5678H79.5645V87.5722ZM88.0053 87.07V90.3885H89.0097V87.07H88.0053ZM88.5075 89.8863H83.108V90.8907H88.5075V89.8863ZM104.692 87.97L105.048 87.6149L105.048 87.6149L104.692 87.97ZM106.014 94.41L106.039 94.9116L106.516 94.8881V94.41H106.014ZM102.583 94.5788H102.081V95.1063L102.608 95.0803L102.583 94.5788ZM102.218 90.4447L101.807 90.7343L101.813 90.7422L101.819 90.7498L102.218 90.4447ZM99.996 102.875L99.6039 103.189L99.61 103.196L99.6165 103.204L99.996 102.875ZM102.19 102.847L102.591 103.148L102.596 103.142L102.6 103.136L102.19 102.847ZM102.527 99.6971H103.029V99.1949H102.527V99.6971ZM101.599 99.6971L101.104 99.781L101.175 100.199H101.599V99.6971ZM101.037 96.3786V95.8764H100.442L100.541 96.4625L101.037 96.3786ZM106.014 96.3786H106.516V95.8764H106.014V96.3786ZM104.692 105.293L105.048 105.649L105.048 105.649L104.692 105.293ZM97.4087 105.293L97.7676 104.942L97.7676 104.942L97.4087 105.293ZM97.4087 87.97L97.0498 87.6187L97.0498 87.6187L97.4087 87.97ZM101.037 87.1504C102.494 87.1504 103.573 87.5602 104.337 88.3251L105.048 87.6149C104.05 86.6173 102.691 86.146 101.037 86.146V87.1504ZM104.337 88.3251C105.101 89.0888 105.512 90.1754 105.512 91.654H106.516C106.516 89.9829 106.046 88.6135 105.048 87.6149L104.337 88.3251ZM105.512 91.654V94.41H106.516V91.654H105.512ZM105.99 93.9084L102.559 94.0772L102.608 95.0803L106.039 94.9116L105.99 93.9084ZM103.085 94.5788V91.9634H102.081V94.5788H103.085ZM103.085 91.9634C103.085 91.2316 102.961 90.5898 102.617 90.1397L101.819 90.7498C101.962 90.9371 102.081 91.3078 102.081 91.9634H103.085ZM102.628 90.1551C102.282 89.6645 101.737 89.4645 101.121 89.4645V90.4689C101.518 90.4689 101.704 90.5875 101.807 90.7343L102.628 90.1551ZM101.121 89.4645C100.533 89.4645 100.008 89.6406 99.642 90.0697C99.2892 90.4836 99.1564 91.0508 99.1564 91.6821H100.161C100.161 91.1699 100.272 90.8793 100.406 90.7213C100.528 90.5786 100.734 90.4689 101.121 90.4689V89.4645ZM99.1564 91.6821V101.581H100.161V91.6821H99.1564ZM99.1564 101.581C99.1564 102.211 99.2755 102.778 99.6039 103.189L100.388 102.561C100.267 102.409 100.161 102.114 100.161 101.581H99.1564ZM99.6165 103.204C99.9831 103.627 100.508 103.799 101.093 103.799V102.795C100.703 102.795 100.496 102.685 100.376 102.546L99.6165 103.204ZM101.093 103.799C101.697 103.799 102.241 103.616 102.591 103.148L101.788 102.545C101.689 102.678 101.501 102.795 101.093 102.795V103.799ZM102.6 103.136C102.917 102.688 103.029 102.042 103.029 101.3H102.025C102.025 101.983 101.913 102.368 101.779 102.557L102.6 103.136ZM103.029 101.3V99.6971H102.025V101.3H103.029ZM102.527 99.1949H101.599V100.199H102.527V99.1949ZM102.094 99.6132L101.532 96.2947L100.541 96.4625L101.104 99.781L102.094 99.6132ZM101.037 96.8808H106.014V95.8764H101.037V96.8808ZM105.512 96.3786V101.609H106.516V96.3786H105.512ZM105.512 101.609C105.512 103.088 105.101 104.175 104.337 104.938L105.048 105.649C106.046 104.65 106.516 103.28 106.516 101.609H105.512ZM104.337 104.938C103.573 105.703 102.494 106.113 101.037 106.113V107.117C102.691 107.117 104.05 106.646 105.048 105.649L104.337 104.938ZM101.037 106.113C99.5781 106.113 98.5123 105.703 97.7676 104.942L97.0498 105.645C98.03 106.646 99.3828 107.117 101.037 107.117V106.113ZM97.7676 104.942C97.0206 104.179 96.6173 103.091 96.6173 101.609H95.6129C95.6129 103.278 96.072 104.646 97.0498 105.645L97.7676 104.942ZM96.6173 101.609V91.654H95.6129V101.609H96.6173ZM96.6173 91.654C96.6173 90.1724 97.0206 89.0845 97.7676 88.3212L97.0498 87.6187C96.072 88.6178 95.6129 89.9859 95.6129 91.654H96.6173ZM97.7676 88.3212C98.5123 87.5604 99.5781 87.1504 101.037 87.1504V86.146C99.3828 86.146 98.03 86.6172 97.0498 87.6187L97.7676 88.3212ZM117.19 105.462L117.545 105.817L117.549 105.813L117.19 105.462ZM109.962 105.462L109.599 105.81L109.607 105.817L109.962 105.462ZM108.697 87.07V86.5678H108.194V87.07H108.697ZM112.128 87.07H112.63V86.5678H112.128V87.07ZM112.549 103.016L112.173 103.348L112.178 103.353L112.183 103.359L112.549 103.016ZM114.518 103.016L114.884 103.359L114.89 103.353L114.895 103.348L114.518 103.016ZM114.94 87.07V86.5678H114.438V87.07H114.94ZM118.483 87.07H118.985V86.5678H118.483V87.07ZM117.981 101.778C117.981 103.26 117.578 104.348 116.831 105.111L117.549 105.813C118.526 104.814 118.985 103.446 118.985 101.778H117.981ZM116.835 105.107C116.09 105.851 115.023 106.254 113.562 106.254V107.258C115.213 107.258 116.564 106.798 117.545 105.817L116.835 105.107ZM113.562 106.254C112.121 106.254 111.062 105.852 110.317 105.107L109.607 105.817C110.587 106.797 111.928 107.258 113.562 107.258V106.254ZM110.325 105.115C109.595 104.352 109.199 103.263 109.199 101.778H108.194C108.194 103.443 108.642 104.81 109.599 105.809L110.325 105.115ZM109.199 101.778V87.07H108.194V101.778H109.199ZM108.697 87.5722H112.128V86.5678H108.697V87.5722ZM111.625 87.07V101.694H112.63V87.07H111.625ZM111.625 101.694C111.625 102.338 111.788 102.911 112.173 103.348L112.926 102.683C112.749 102.483 112.63 102.174 112.63 101.694H111.625ZM112.183 103.359C112.549 103.749 113.006 103.968 113.534 103.968V102.963C113.312 102.963 113.112 102.882 112.916 102.672L112.183 103.359ZM113.534 103.968C114.062 103.968 114.518 103.749 114.884 103.359L114.152 102.672C113.955 102.882 113.756 102.963 113.534 102.963V103.968ZM114.895 103.348C115.28 102.911 115.442 102.338 115.442 101.694H114.438C114.438 102.174 114.319 102.483 114.141 102.683L114.895 103.348ZM115.442 101.694V87.07H114.438V101.694H115.442ZM114.94 87.5722H118.483V86.5678H114.94V87.5722ZM117.981 87.07V101.778H118.985V87.07H117.981ZM128.202 87.07V86.5678H127.7V87.07H128.202ZM131.577 87.07H132.079V86.5678H131.577V87.07ZM131.577 106.475V106.977H132.079V106.475H131.577ZM128.174 106.475L127.7 106.64L127.818 106.977H128.174V106.475ZM124.406 95.6755L124.88 95.5101L123.904 95.6755H124.406ZM124.406 106.475V106.977H124.908V106.475H124.406ZM121.031 106.475H120.529V106.977H121.031V106.475ZM121.031 87.07V86.5678H120.529V87.07H121.031ZM124.828 87.07L125.301 86.9016L125.182 86.5678H124.828V87.07ZM128.202 96.5473L127.729 96.7158L128.704 96.5473H128.202ZM128.202 87.5722H131.577V86.5678H128.202V87.5722ZM131.075 87.07V106.475H132.079V87.07H131.075ZM131.577 105.972H128.174V106.977H131.577V105.972ZM128.648 106.309L124.88 95.5101L123.932 95.841L127.7 106.64L128.648 106.309ZM123.904 95.6755V106.475H124.908V95.6755H123.904ZM124.406 105.972H121.031V106.977H124.406V105.972ZM121.533 106.475V87.07H120.529V106.475H121.533ZM121.031 87.5722H124.828V86.5678H121.031V87.5722ZM124.354 87.2385L127.729 96.7158L128.675 96.3789L125.301 86.9016L124.354 87.2385ZM128.704 96.5473V87.07H127.7V96.5473H128.704Z" fill="black" mask="url(#path-21-outside-1_188_567)"/>
</g>
<defs>
<filter id="filter0_d_188_567" x="5.87695" y="86.5076" width="126.704" height="21.2527" filterUnits="userSpaceOnUse" color-interpolation-filters="sRGB">
<feFlood flood-opacity="0" result="BackgroundImageFix"/>
<feColorMatrix in="SourceAlpha" type="matrix" values="0 0 0 0 0 0 0 0 0 0 0 0 0 0 0 0 0 0 127 0" result="hardAlpha"/>
<feOffset dx="1.00438" dy="1.00438"/>
<feComposite in2="hardAlpha" operator="out"/>
<feColorMatrix type="matrix" values="0 0 0 0 0.290196 0 0 0 0 0.290196 0 0 0 0 0.290196 0 0 0 1 0"/>
<feBlend mode="normal" in2="BackgroundImageFix" result="effect1_dropShadow_188_567"/>
<feBlend mode="normal" in="SourceGraphic" in2="effect1_dropShadow_188_567" result="shape"/>
</filter>
</defs>
</svg>
