<svg width="138" height="138" viewBox="0 0 138 138" fill="none" xmlns="http://www.w3.org/2000/svg">
<path d="M36.322 40.0543H46.4041V75.3416H36.322V58.1516L28.458 71.3591H27.5506L19.6866 58.1516V75.3416H9.6045V40.0543H19.6866L28.0043 54.4213L36.322 40.0543ZM82.7034 75.3416H71.8652L70.6554 70.8046H60.4725L59.2626 75.3416H48.4244L59.6659 40.0543H71.4619L82.7034 75.3416ZM65.5639 51.9007L62.6401 62.739H68.4877L65.5639 51.9007ZM84.7277 75.3416V40.0543H94.8098V75.3416H84.7277ZM118.997 56.1856V40.0543H129.079V75.3416H121.013L109.923 59.2102V75.3416H99.841V40.0543H107.907L118.997 56.1856Z" fill="#00BABF"/>
<path d="M20.2921 95.87C17.2332 95.87 14.7033 94.8599 12.7024 92.8399C10.7016 90.8198 9.7012 88.3476 9.7012 85.4233C9.7012 82.4991 10.7016 80.0269 12.7024 78.0068C14.7033 75.9868 17.2332 74.9767 20.2921 74.9767C22.1583 74.9767 23.8705 75.4288 25.4289 76.333C26.9872 77.218 28.1896 78.4205 29.0361 79.9403L27.2469 80.9792C26.612 79.7479 25.6693 78.7667 24.4188 78.0357C23.1683 77.3046 21.7927 76.9391 20.2921 76.9391C17.7718 76.9391 15.7133 77.7567 14.1165 79.392C12.5197 81.0273 11.7213 83.0377 11.7213 85.4233C11.7213 87.809 12.5197 89.8194 14.1165 91.4547C15.7133 93.09 17.7718 93.9076 20.2921 93.9076C21.7927 93.9076 23.1683 93.5421 24.4188 92.811C25.6693 92.0799 26.612 91.0988 27.2469 89.8675L29.0361 90.8775C28.2089 92.3974 27.0064 93.6094 25.4289 94.5136C23.8705 95.4179 22.1583 95.87 20.2921 95.87ZM34.3783 93.619H43.6128V95.5237H32.3582V75.323H34.3783V93.619ZM61.777 92.8399C59.7569 94.8599 57.2847 95.87 54.3605 95.87C51.4362 95.87 48.964 94.8599 46.9439 92.8399C44.9239 90.8006 43.9138 88.3284 43.9138 85.4233C43.9138 82.5183 44.9239 80.0557 46.9439 78.0357C48.964 75.9964 51.4362 74.9767 54.3605 74.9767C57.2847 74.9767 59.7569 75.9964 61.777 78.0357C63.7971 80.0557 64.8071 82.5183 64.8071 85.4233C64.8071 88.3284 63.7971 90.8006 61.777 92.8399ZM48.358 91.4547C49.974 93.09 51.9749 93.9076 54.3605 93.9076C56.7461 93.9076 58.7469 93.09 60.3629 91.4547C61.979 89.8002 62.787 87.7897 62.787 85.4233C62.787 83.057 61.979 81.0562 60.3629 79.4209C58.7469 77.7663 56.7461 76.9391 54.3605 76.9391C51.9749 76.9391 49.974 77.7663 48.358 79.4209C46.7419 81.0562 45.9339 83.057 45.9339 85.4233C45.9339 87.7897 46.7419 89.8002 48.358 91.4547ZM79.8038 75.323V77.2276H73.5993V95.5237H71.5793V77.2276H65.3748V75.323H79.8038ZM95.6769 75.323H97.697V95.5237H95.6769V86.0871H84.7108V95.5237H82.6908V75.323H84.7108V84.1825H95.6769V75.323ZM104.325 93.619H114.137V95.5237H102.305V75.323H113.993V77.2276H104.325V84.3845H113.271V86.2891H104.325V93.619ZM123.957 95.87C122.11 95.87 120.523 95.4371 119.195 94.5714C117.887 93.6864 116.973 92.4743 116.454 90.9352L118.185 89.9252C118.551 91.1757 119.224 92.1569 120.205 92.8687C121.186 93.5613 122.446 93.9076 123.986 93.9076C125.486 93.9076 126.65 93.5806 127.477 92.9265C128.324 92.2531 128.747 91.3681 128.747 90.2715C128.747 89.2134 128.362 88.415 127.593 87.8763C126.823 87.3376 125.554 86.7797 123.784 86.2025C121.687 85.5099 120.301 84.952 119.628 84.5287C118.089 83.6053 117.319 82.2682 117.319 80.5175C117.319 78.8052 117.916 77.4585 119.109 76.4773C120.301 75.4769 121.773 74.9767 123.524 74.9767C125.101 74.9767 126.467 75.3904 127.622 76.2176C128.776 77.0256 129.632 78.0645 130.19 79.3343L128.487 80.2866C127.564 78.0549 125.909 76.9391 123.524 76.9391C122.273 76.9391 121.263 77.2469 120.494 77.8625C119.724 78.4782 119.339 79.3343 119.339 80.4309C119.339 81.4313 119.686 82.1816 120.378 82.6818C121.071 83.182 122.216 83.6919 123.812 84.2113C124.543 84.4614 125.063 84.6442 125.371 84.7596C125.698 84.8558 126.16 85.029 126.756 85.2791C127.372 85.5099 127.824 85.7215 128.112 85.9139C128.401 86.0871 128.747 86.3372 129.151 86.6642C129.574 86.9721 129.873 87.2895 130.046 87.6166C130.238 87.9244 130.402 88.3092 130.536 88.7709C130.69 89.2134 130.767 89.6943 130.767 90.2138C130.767 91.926 130.142 93.3016 128.891 94.3405C127.641 95.3602 125.996 95.87 123.957 95.87Z" fill="black"/>
</svg>
