<svg width="138" height="138" viewBox="0 0 138 138" fill="none" xmlns="http://www.w3.org/2000/svg">
<rect x="15.0918" y="44.1841" width="106.188" height="54.5357" rx="11.7679" transform="rotate(-2 15.0918 44.1841)" fill="#00A3FF"/>
<path d="M42.2359 80.0265L36.5947 63.0025L40.0108 62.8832L43.6488 74.5956L46.4617 62.6818L49.877 62.5386L53.5149 74.251L56.327 62.3134L59.7431 62.1941L55.3032 79.5702L52.1021 79.6819L48.3641 68.1883L45.437 79.9147L42.2359 80.0265ZM61.5203 64.6435L61.4202 61.7768L64.6691 61.6633L64.7692 64.53L61.5203 64.6435ZM62.0333 79.3351L61.5828 66.4351L64.8317 66.3217L65.2822 79.2217L62.0333 79.3351ZM69.102 79.0883L68.4889 61.5299L71.7378 61.4165L72.3509 78.9748L69.102 79.0883ZM82.2749 78.9871C80.9929 79.0318 79.9114 78.7706 79.0306 78.2034C78.1497 77.6362 77.4724 76.8467 76.9985 75.8347C76.5326 74.8225 76.2772 73.6714 76.2321 72.3814C76.1871 71.0914 76.3616 69.9253 76.7558 68.8831C77.1499 67.8408 77.7546 67.0065 78.5698 66.3801C79.3851 65.7537 80.4059 65.419 81.6322 65.3762C82.8664 65.3331 83.9517 65.5902 84.888 66.1475C85.8244 66.7048 86.5613 67.4883 87.0988 68.498C87.6441 69.4994 87.9396 70.6571 87.9855 71.971C88.0305 73.261 87.8202 74.4284 87.3544 75.4731C86.8965 76.5176 86.2321 77.354 85.3611 77.9824C84.4901 78.6107 83.4614 78.9456 82.2749 78.9871ZM75.9079 78.8506L75.3073 61.6506L78.5801 61.5363L78.8721 69.8974L78.4659 69.9116L78.7746 78.7505L75.9079 78.8506ZM81.6484 76.1149C82.3491 76.0904 82.9164 75.8952 83.3501 75.5292C83.7837 75.1633 84.0978 74.6819 84.2922 74.0852C84.4864 73.4804 84.5708 72.8158 84.5455 72.0911C84.5205 71.3745 84.3862 70.7254 84.1426 70.1439C83.8988 69.5545 83.5359 69.0928 83.0538 68.7588C82.5795 68.4166 81.98 68.2582 81.2553 68.2835C80.5785 68.3071 80.0347 68.4895 79.6241 68.8307C79.2214 69.1717 78.9348 69.6401 78.7643 70.2361C78.5938 70.832 78.5221 71.5201 78.5494 72.3005C78.5766 73.0809 78.6961 73.7624 78.9078 74.345C79.1195 74.9275 79.446 75.3746 79.8874 75.686C80.3368 75.9972 80.9238 76.1402 81.6484 76.1149ZM91.7545 84.0376L94.0003 77.1186L94.1182 79.1236L88.0221 65.5118L91.3904 65.3942L95.5061 75.033L94.7416 75.0597L98.151 65.1581L101.4 65.0447L94.7645 83.9325L91.7545 84.0376Z" fill="#F5FBFF"/>
</svg>
